# xmcd CD database file
#
# Track frame offsets:
#	150
#	26166
#	45678
#	76534
#	97014
#	117670
#	141174
#	155742
#	173870
#	190430
#
# Disc length: 2815 seconds
#
# Revision: 0
# Processed by: cddbd v1.5.2PL0 Copyright (c) Steve Scherf et al.
# Submitted via: CDex 1.77
#
DISCID=890afd0a
DTITLE=GURF MORLIX - EATIN' AT ME
DYEAR=2015
DGENRE=Blues
TTITLE0=DIRTY OLD BUFFALO
TTITLE1=GRAB THE WHEEL
TTITLE2=ELEPHANT'S GRAVEYARD
TTITLE3=ORPHAN TEARS
TTITLE4=THE DOG I AM
TTITLE5=50 YEARS
TTITLE6=DINAH
TTITLE7=LAST CALL
TTITLE8=BORN IN LACKAWANNA
TTITLE9=BLUE SMOKE
EXTD=YEAR: 2015
EXTT0=
EXTT1=
EXTT2=
EXTT3=
EXTT4=
EXTT5=
EXTT6=
EXTT7=
EXTT8=
EXTT9=
PLAYORDER=
